# xmcd
#
# Track frame offsets:
#	150
#	16579
#	32537
#	48073
#	63906
#	76438
#	93840
#	110240
#	126198
#	141686
#	157390
#	169992
#
# Disc length: 2501 seconds
#
# Revision: 1
# Processed by: cddbd v1.5.2PL0 Copyright (c) Steve Scherf et al.
# Submitted via: audiograbber 1.83.01
#
DISCID=a009c30c
DTITLE=McCoy, Neal - CB20141
DYEAR=1900
DGENRE=Karaoke
TTITLE0=Shake, The  W/Vocal
TTITLE1=For A Change  W/Vocal
TTITLE2=If I Was A Drinkin' Man  W/Vocal
TTITLE3=They're Playing Our Song  W/Vocal
TTITLE4=You Gotta Love That  W/Vocal
TTITLE5=No Doubt About It  W/Vocal
TTITLE6=Shake, The
TTITLE7=For A Change
TTITLE8=If I Was A Drinkin' Man
TTITLE9=They're Playing Our Song
TTITLE10=You Gotta Love That
TTITLE11=No Doubt About It
EXTD=
EXTT0=
EXTT1=
EXTT2=
EXTT3=
EXTT4=
EXTT5=
EXTT6=
EXTT7=
EXTT8=
EXTT9=
EXTT10=
EXTT11=
PLAYORDER=
